<svg width="205" height="50" viewBox="0 0 205 50" fill="none" xmlns="http://www.w3.org/2000/svg">
<path d="M40.2344 0H9.76562C4.37222 0 0 4.37222 0 9.76562V40.2344C0 45.6278 4.37222 50 9.76562 50H40.2344C45.6278 50 50 45.6278 50 40.2344V9.76562C50 4.37222 45.6278 0 40.2344 0Z" fill="url(#paint0_linear_140_7339)"/>
<path d="M25.2371 28.436L14.9531 25.2708V30.5572C14.9531 33.0011 19.5589 34.9826 25.2401 34.9826C30.9214 34.9826 35.5276 33.0011 35.5276 30.5572C35.5276 30.5376 35.5213 30.5181 35.5209 30.4999V25.2708L25.2371 28.436Z" fill="white"/>
<path d="M8 21.6317L11.6739 22.9459L11.987 22.2754L13.3367 22.1607L13.5292 22.3609L12.371 22.6356L12.2021 23.1352C12.2021 23.1352 9.58603 28.604 9.97021 31.2791C9.97021 31.2791 11.603 32.253 13.2351 31.2791L13.6687 23.9646V23.3557L16.0982 22.8077L15.9267 23.2305L14.1153 23.8196L14.9531 24.1189L25.237 27.2833L35.5208 24.118L42.4739 21.6313L25.237 15.0002L8 21.6317Z" fill="white"/>
<path d="M66.8523 19.0881V16.0455H81.1875V19.0881H75.8438V33.5H72.196V19.0881H66.8523ZM90.0938 27.9261V20.4091H93.7244V33.5H90.2386V31.1222H90.1023C89.8068 31.8892 89.3153 32.5057 88.6278 32.9716C87.946 33.4375 87.1136 33.6705 86.1307 33.6705C85.2557 33.6705 84.4858 33.4716 83.821 33.0739C83.1563 32.6761 82.6364 32.1108 82.2614 31.3778C81.892 30.6449 81.7045 29.767 81.6989 28.7443V20.4091H85.3295V28.0966C85.3352 28.8693 85.5426 29.4801 85.9517 29.929C86.3608 30.3778 86.9091 30.6023 87.5966 30.6023C88.0341 30.6023 88.4432 30.5028 88.8239 30.304C89.2045 30.0994 89.5114 29.7983 89.7443 29.4006C89.983 29.0028 90.0994 28.5114 90.0938 27.9261ZM103.592 20.4091V23.1364H95.7081V20.4091H103.592ZM97.4979 17.2727H101.129V29.4773C101.129 29.8125 101.18 30.0739 101.282 30.2614C101.384 30.4432 101.526 30.571 101.708 30.6449C101.896 30.7187 102.112 30.7557 102.356 30.7557C102.526 30.7557 102.697 30.7415 102.867 30.7131C103.038 30.679 103.168 30.6534 103.259 30.6364L103.83 33.3381C103.648 33.3949 103.393 33.4602 103.063 33.5341C102.734 33.6136 102.333 33.6619 101.862 33.679C100.987 33.7131 100.219 33.5966 99.5604 33.3295C98.907 33.0625 98.3984 32.6477 98.0348 32.0852C97.6712 31.5227 97.4922 30.8125 97.4979 29.9545V17.2727ZM111.731 33.7557C110.407 33.7557 109.262 33.4744 108.296 32.9119C107.336 32.3437 106.594 31.554 106.072 30.5426C105.549 29.5256 105.288 28.3466 105.288 27.0057C105.288 25.6534 105.549 24.4716 106.072 23.4602C106.594 22.4432 107.336 21.6534 108.296 21.0909C109.262 20.5227 110.407 20.2386 111.731 20.2386C113.055 20.2386 114.197 20.5227 115.157 21.0909C116.123 21.6534 116.867 22.4432 117.39 23.4602C117.913 24.4716 118.174 25.6534 118.174 27.0057C118.174 28.3466 117.913 29.5256 117.39 30.5426C116.867 31.554 116.123 32.3437 115.157 32.9119C114.197 33.4744 113.055 33.7557 111.731 33.7557ZM111.748 30.9432C112.35 30.9432 112.853 30.7727 113.256 30.4318C113.66 30.0852 113.964 29.6136 114.168 29.017C114.379 28.4205 114.484 27.7415 114.484 26.9801C114.484 26.2188 114.379 25.5398 114.168 24.9432C113.964 24.3466 113.66 23.875 113.256 23.5284C112.853 23.1818 112.35 23.0085 111.748 23.0085C111.14 23.0085 110.629 23.1818 110.214 23.5284C109.805 23.875 109.495 24.3466 109.285 24.9432C109.08 25.5398 108.978 26.2188 108.978 26.9801C108.978 27.7415 109.08 28.4205 109.285 29.017C109.495 29.6136 109.805 30.0852 110.214 30.4318C110.629 30.7727 111.14 30.9432 111.748 30.9432ZM120.535 33.5V20.4091H124.055V22.6932H124.191C124.43 21.8807 124.83 21.267 125.393 20.8523C125.955 20.4318 126.603 20.2216 127.336 20.2216C127.518 20.2216 127.714 20.233 127.924 20.2557C128.134 20.2784 128.319 20.3097 128.478 20.3494V23.571C128.308 23.5199 128.072 23.4744 127.771 23.4347C127.469 23.3949 127.194 23.375 126.944 23.375C126.41 23.375 125.933 23.4915 125.512 23.7244C125.097 23.9517 124.768 24.2699 124.523 24.679C124.285 25.0881 124.165 25.5597 124.165 26.0938V33.5H120.535ZM130.423 33.5V16.0455H137.412C138.696 16.0455 139.767 16.2358 140.625 16.6165C141.483 16.9972 142.128 17.5256 142.56 18.2017C142.991 18.8722 143.207 19.6449 143.207 20.5199C143.207 21.2017 143.071 21.8011 142.798 22.3182C142.526 22.8295 142.151 23.25 141.673 23.5795C141.202 23.9034 140.662 24.1335 140.054 24.2699V24.4403C140.719 24.4687 141.341 24.6562 141.92 25.0028C142.506 25.3494 142.98 25.8352 143.344 26.4602C143.707 27.0795 143.889 27.8182 143.889 28.6761C143.889 29.6023 143.659 30.429 143.199 31.1562C142.744 31.8778 142.071 32.4489 141.179 32.8693C140.287 33.2898 139.188 33.5 137.881 33.5H130.423ZM134.114 30.483H137.122C138.151 30.483 138.901 30.2869 139.372 29.8949C139.844 29.4972 140.08 28.9687 140.08 28.3097C140.08 27.8267 139.963 27.4006 139.73 27.0312C139.497 26.6619 139.165 26.3722 138.733 26.1619C138.307 25.9517 137.798 25.8466 137.207 25.8466H134.114V30.483ZM134.114 23.3494H136.849C137.355 23.3494 137.804 23.2614 138.196 23.0852C138.594 22.9034 138.906 22.6477 139.134 22.3182C139.366 21.9886 139.483 21.5938 139.483 21.1335C139.483 20.5028 139.259 19.9943 138.81 19.608C138.366 19.2216 137.736 19.0284 136.918 19.0284H134.114V23.3494ZM154.617 27.9261V20.4091H158.248V33.5H154.762V31.1222H154.626C154.33 31.8892 153.839 32.5057 153.151 32.9716C152.469 33.4375 151.637 33.6705 150.654 33.6705C149.779 33.6705 149.009 33.4716 148.344 33.0739C147.68 32.6761 147.16 32.1108 146.785 31.3778C146.415 30.6449 146.228 29.767 146.222 28.7443V20.4091H149.853V28.0966C149.859 28.8693 150.066 29.4801 150.475 29.929C150.884 30.3778 151.433 30.6023 152.12 30.6023C152.558 30.6023 152.967 30.5028 153.347 30.304C153.728 30.0994 154.035 29.7983 154.268 29.4006C154.506 29.0028 154.623 28.5114 154.617 27.9261ZM165.976 33.7131C164.982 33.7131 164.081 33.4574 163.274 32.946C162.473 32.429 161.837 31.6705 161.365 30.6705C160.899 29.6648 160.666 28.4318 160.666 26.9716C160.666 25.4716 160.908 24.2244 161.391 23.2301C161.874 22.2301 162.516 21.483 163.317 20.9886C164.124 20.4886 165.007 20.2386 165.967 20.2386C166.7 20.2386 167.311 20.3636 167.8 20.6136C168.294 20.858 168.692 21.1648 168.993 21.5341C169.3 21.8977 169.533 22.2557 169.692 22.608H169.803V16.0455H173.425V33.5H169.845V31.4034H169.692C169.521 31.767 169.28 32.1278 168.967 32.4858C168.661 32.8381 168.26 33.1307 167.766 33.3636C167.277 33.5966 166.68 33.7131 165.976 33.7131ZM167.126 30.8239C167.712 30.8239 168.206 30.6648 168.609 30.3466C169.018 30.0227 169.331 29.571 169.547 28.9915C169.768 28.4119 169.879 27.733 169.879 26.9545C169.879 26.1761 169.771 25.5 169.555 24.9261C169.339 24.3523 169.027 23.9091 168.618 23.5966C168.209 23.2841 167.712 23.1278 167.126 23.1278C166.53 23.1278 166.027 23.2898 165.618 23.6136C165.209 23.9375 164.899 24.3864 164.689 24.9602C164.479 25.5341 164.374 26.1989 164.374 26.9545C164.374 27.7159 164.479 28.3892 164.689 28.9744C164.905 29.554 165.214 30.0085 165.618 30.3381C166.027 30.6619 166.53 30.8239 167.126 30.8239ZM181.234 33.7131C180.239 33.7131 179.339 33.4574 178.532 32.946C177.731 32.429 177.094 31.6705 176.623 30.6705C176.157 29.6648 175.924 28.4318 175.924 26.9716C175.924 25.4716 176.165 24.2244 176.648 23.2301C177.131 22.2301 177.773 21.483 178.575 20.9886C179.381 20.4886 180.265 20.2386 181.225 20.2386C181.958 20.2386 182.569 20.3636 183.058 20.6136C183.552 20.858 183.95 21.1648 184.251 21.5341C184.558 21.8977 184.79 22.2557 184.95 22.608H185.06V16.0455H188.683V33.5H185.103V31.4034H184.95C184.779 31.767 184.538 32.1278 184.225 32.4858C183.918 32.8381 183.518 33.1307 183.023 33.3636C182.535 33.5966 181.938 33.7131 181.234 33.7131ZM182.384 30.8239C182.969 30.8239 183.464 30.6648 183.867 30.3466C184.276 30.0227 184.589 29.571 184.805 28.9915C185.026 28.4119 185.137 27.733 185.137 26.9545C185.137 26.1761 185.029 25.5 184.813 24.9261C184.597 24.3523 184.285 23.9091 183.876 23.5966C183.467 23.2841 182.969 23.1278 182.384 23.1278C181.788 23.1278 181.285 23.2898 180.876 23.6136C180.467 23.9375 180.157 24.3864 179.947 24.9602C179.737 25.5341 179.631 26.1989 179.631 26.9545C179.631 27.7159 179.737 28.3892 179.947 28.9744C180.163 29.554 180.472 30.0085 180.876 30.3381C181.285 30.6619 181.788 30.8239 182.384 30.8239ZM193.909 38.4091C193.449 38.4091 193.017 38.3722 192.614 38.2983C192.216 38.2301 191.886 38.142 191.625 38.0341L192.443 35.3239C192.869 35.4545 193.253 35.5256 193.594 35.5369C193.94 35.5483 194.239 35.4688 194.489 35.2983C194.744 35.1278 194.952 34.8381 195.111 34.429L195.324 33.875L190.628 20.4091H194.446L197.156 30.0227H197.293L200.028 20.4091H203.872L198.784 34.9148C198.54 35.6193 198.207 36.233 197.787 36.7557C197.372 37.2841 196.847 37.6903 196.21 37.9744C195.574 38.2642 194.807 38.4091 193.909 38.4091Z" fill="#21334F"/>
<defs>
<linearGradient id="paint0_linear_140_7339" x1="25" y1="0" x2="25" y2="50" gradientUnits="userSpaceOnUse">
<stop stop-color="#FEAE07"/>
<stop offset="1" stop-color="#FD2959"/>
</linearGradient>
</defs>
</svg>
