<svg width="102" height="100" viewBox="0 0 102 100" fill="none" xmlns="http://www.w3.org/2000/svg">
<path d="M51 0C41.0121 0 31.2484 2.93245 22.9437 8.42652C14.639 13.9206 8.16633 21.7295 4.34411 30.8658C0.521881 40.0021 -0.478187 50.0555 1.47037 59.7545C3.41892 69.4536 8.22858 78.3627 15.2911 85.3553C22.3537 92.3479 31.3519 97.11 41.148 99.0392C50.944 100.969 61.0979 99.9783 70.3255 96.194C79.5532 92.4096 87.4402 86.001 92.9892 77.7785C98.5382 69.556 101.5 59.8891 101.5 50C101.5 36.7392 96.1795 24.0215 86.7089 14.6447C77.2383 5.26784 64.3934 0 51 0ZM74.8192 39.9583L51 63.5C48.6328 65.8408 45.424 67.1557 42.0784 67.1557C38.7327 67.1557 35.5239 65.8408 33.1567 63.5L27.1809 57.625C26.7885 57.2365 26.4772 56.7753 26.2649 56.2677C26.0525 55.7601 25.9432 55.2161 25.9432 54.6667C25.9432 54.1172 26.0525 53.5732 26.2649 53.0656C26.4772 52.558 26.7885 52.0968 27.1809 51.7083C27.5732 51.3198 28.0391 51.0117 28.5517 50.8014C29.0644 50.5912 29.6139 50.4829 30.1688 50.4829C30.7237 50.4829 31.2731 50.5912 31.7858 50.8014C32.2985 51.0117 32.7643 51.3198 33.1567 51.7083L39.0904 57.625C39.4817 58.0155 39.9471 58.3255 40.4599 58.537C40.9727 58.7486 41.5228 58.8575 42.0784 58.8575C42.6339 58.8575 43.184 58.7486 43.6968 58.537C44.2096 58.3255 44.675 58.0155 45.0663 57.625L68.8433 34.0417C69.2357 33.6532 69.7015 33.345 70.2142 33.1347C70.7269 32.9245 71.2764 32.8163 71.8313 32.8163C72.3862 32.8163 72.9356 32.9245 73.4483 33.1347C73.961 33.345 74.4268 33.6532 74.8192 34.0417C75.2116 34.4302 75.5228 34.8914 75.7352 35.399C75.9475 35.9065 76.0568 36.4506 76.0568 37C76.0568 37.5494 75.9475 38.0934 75.7352 38.601C75.5228 39.1086 75.2116 39.5698 74.8192 39.9583Z" fill="#14A800"/>
</svg>
