<svg width="103" height="102" viewBox="0 0 103 102" fill="none" xmlns="http://www.w3.org/2000/svg">
<g clip-path="url(#clip0_1317_13907)">
<circle cx="51.5" cy="51" r="51" fill="#FD2959" fill-opacity="0.1"/>
<path d="M73.8999 65.4V52.28C75.0398 51.6975 76.1128 50.9926 77.0999 50.1776V65.4C77.0999 67.5217 76.257 69.5566 74.7568 71.0569C73.2565 72.5572 71.2216 73.4 69.0999 73.4H33.8999C31.7782 73.4 29.7433 72.5572 28.243 71.0569C26.7428 69.5566 25.8999 67.5217 25.8999 65.4V39.8C25.8999 37.6783 26.7428 35.6434 28.243 34.1432C29.7433 32.6429 31.7782 31.8 33.8999 31.8H48.9623C48.6662 32.846 48.468 33.9173 48.3703 35H33.8999C32.6269 35 31.406 35.5057 30.5058 36.4059C29.6056 37.3061 29.0999 38.527 29.0999 39.8V40.7664L51.4999 53.944L56.1111 51.2304C57.1511 51.9248 58.2679 52.5136 59.4487 52.9808L52.3127 57.1792C52.1086 57.299 51.8805 57.3721 51.6448 57.3931C51.409 57.4142 51.1716 57.3826 50.9495 57.3008L50.6871 57.1792L29.0999 44.4816V65.4C29.0999 66.6731 29.6056 67.894 30.5058 68.7941C31.406 69.6943 32.6269 70.2 33.8999 70.2H69.0999C70.3729 70.2 71.5938 69.6943 72.494 68.7941C73.3942 67.894 73.8999 66.6731 73.8999 65.4V65.4ZM65.8999 51C69.719 51 73.3817 49.4829 76.0822 46.7823C78.7828 44.0818 80.2999 40.4191 80.2999 36.6C80.2999 32.7809 78.7828 29.1182 76.0822 26.4177C73.3817 23.7172 69.719 22.2 65.8999 22.2C62.0808 22.2 58.4181 23.7172 55.7176 26.4177C53.017 29.1182 51.4999 32.7809 51.4999 36.6C51.4999 40.4191 53.017 44.0818 55.7176 46.7823C58.4181 49.4829 62.0808 51 65.8999 51V51ZM73.4327 32.9328L63.8327 42.5328C63.6841 42.6818 63.5075 42.8 63.3131 42.8807C63.1187 42.9614 62.9104 43.0029 62.6999 43.0029C62.4894 43.0029 62.2811 42.9614 62.0867 42.8807C61.8923 42.8 61.7157 42.6818 61.5671 42.5328L58.3671 39.3328C58.0667 39.0324 57.8979 38.6249 57.8979 38.2C57.8979 37.7751 58.0667 37.3676 58.3671 37.0672C58.6675 36.7668 59.075 36.598 59.4999 36.598C59.9248 36.598 60.3323 36.7668 60.6327 37.0672L62.6999 39.1376L71.1671 30.6672C71.4675 30.3668 71.875 30.198 72.2999 30.198C72.7248 30.198 73.1323 30.3668 73.4327 30.6672C73.7331 30.9676 73.9019 31.3751 73.9019 31.8C73.9019 32.2249 73.7331 32.6324 73.4327 32.9328Z" fill="#FD2959"/>
</g>
<defs>
<clipPath id="clip0_1317_13907">
<rect width="102" height="102" fill="white" transform="translate(0.5)"/>
</clipPath>
</defs>
</svg>
